<svg width="25" height="25" viewBox="0 0 25 25" fill="none" xmlns="http://www.w3.org/2000/svg">
<g clip-path="url(#clip0_8213_37542)">
<path d="M9.59536 19.739L9.55821 19.4418L9.27871 19.3343C9.08904 19.2614 8.9119 19.1744 8.74669 19.0739C8.56682 18.9644 8.3907 18.847 8.2183 18.7216L7.99037 18.5558L7.73054 18.665L5.16137 19.7445L2.85331 15.7578L5.07607 14.0746L5.31084 13.8968L5.26919 13.6053C5.25558 13.51 5.24922 13.4212 5.24922 13.3385V12.6635C5.24922 12.5808 5.25558 12.492 5.26919 12.3967L5.31084 12.1052L5.07607 11.9274L2.85331 10.2441L5.16137 6.25746L7.73054 7.33694L7.99037 7.44611L8.2183 7.28034C8.38777 7.1571 8.56535 7.04125 8.75115 6.93287C8.93326 6.82664 9.11338 6.73674 9.29153 6.66252L9.55937 6.55091L9.59536 6.26299L9.94061 3.50098H14.5578L14.9031 6.26299L14.9402 6.56015L15.2197 6.66765C15.4094 6.7406 15.5865 6.82751 15.7517 6.92808C15.9316 7.03756 16.1077 7.15497 16.2801 7.28034L16.5081 7.44611L16.7679 7.33694L19.3371 6.25746L21.6451 10.2441L19.4224 11.9274L19.1876 12.1052L19.2292 12.3967C19.2429 12.492 19.2492 12.5808 19.2492 12.6635V13.3385C19.2492 13.3952 19.2405 13.4613 19.2185 13.5386L19.1244 13.8679L19.3974 14.0746L21.6201 15.7578L19.3127 19.7433L16.7693 18.6656L16.5089 18.5553L16.2801 18.7216C16.1107 18.8449 15.9331 18.9607 15.7473 19.0691C15.5652 19.1753 15.3851 19.2652 15.2069 19.3394L14.9391 19.451L14.9031 19.739L14.5578 22.501H9.94061L9.59536 19.739ZM12.2992 17.001C13.3984 17.001 14.3506 16.6067 15.1278 15.8295C15.9049 15.0524 16.2992 14.1002 16.2992 13.001C16.2992 11.9017 15.9049 10.9496 15.1278 10.1724C14.3506 9.39529 13.3984 9.00098 12.2992 9.00098C11.1858 9.00098 10.2274 9.39366 9.456 10.1746C8.68789 10.9522 8.29922 11.9037 8.29922 13.001C8.29922 14.0982 8.68789 15.0498 9.456 15.8274C10.2274 16.6083 11.1858 17.001 12.2992 17.001Z" stroke="white"/>
</g>
<defs>
<clipPath id="clip0_8213_37542">
<rect width="24" height="24" fill="white" transform="translate(0.25 0.500977)"/>
</clipPath>
</defs>
</svg>
