<svg width="20" height="11" viewBox="0 0 20 11" fill="none" xmlns="http://www.w3.org/2000/svg">
<path d="M1.3032 10.8087L0.595703 10.101L5.54945 5.14723C6.04312 4.66639 6.63287 4.42281 7.3187 4.41648C8.00454 4.40998 8.59429 4.65356 9.08795 5.14723L10.238 6.29723C10.5405 6.59973 10.8965 6.74781 11.3062 6.74148C11.7159 6.73498 12.072 6.58689 12.3745 6.29723L17.69 1.00098H14.4032V0.000976562H19.4032V5.00098H18.4032V1.71448L13.0822 7.01048C12.5885 7.49131 11.9955 7.73498 11.3032 7.74148C10.611 7.74781 10.0245 7.51056 9.5437 7.02973L8.3687 5.85473C8.07004 5.55606 7.71812 5.40998 7.31295 5.41648C6.90779 5.42281 6.55587 5.56889 6.2572 5.85473L1.3032 10.8087Z" fill="#fff"/>
</svg>
